<?xml version="1.0" encoding="utf-8"?>
<!-- Generator: Adobe Illustrator 16.0.0, SVG Export Plug-In . SVG Version: 6.00 Build 0)  -->
<!DOCTYPE svg PUBLIC "-//W3C//DTD SVG 1.1//EN" "http://www.w3.org/Graphics/SVG/1.1/DTD/svg11.dtd">
<svg version="1.1" id="Layer_1" xmlns="http://www.w3.org/2000/svg" xmlns:xlink="http://www.w3.org/1999/xlink" x="0px" y="0px"
	 width="304.6px" height="33.1px" viewBox="0 0 304.6 33.1" enable-background="new 0 0 304.6 33.1" xml:space="preserve">
<g>
	<path fill="#FFFFFF" d="M3.5,14.6c0-6.2,0-7.4-0.1-8.6C3.3,4.6,3,3.9,1.7,3.6c-0.3-0.1-1-0.1-1.4-0.1C0.2,3.5,0,3.4,0,3.3
		C0,3,0.2,3,0.6,3c1.8,0,4.2,0.1,4.5,0.1C6,3.1,8.4,3,10.2,3c5,0,6.8,1.7,7.4,2.3c0.9,0.8,2,2.6,2,4.8c0,5.7-4.2,9.5-9.8,9.5
		c-0.2,0-0.6,0-0.8,0c-0.2,0-0.4-0.1-0.4-0.3c0-0.3,0.2-0.4,1.1-0.4c3.9,0,6.9-2.8,6.9-6.5c0-1.3-0.1-4-2.2-6.2s-4.6-2-5.5-2
		c-0.7,0-1.4,0.1-1.7,0.2C6.8,4.5,6.8,4.8,6.8,5.2v16.4c0,3.8,0,7,0.2,8.7c0.1,1.2,0.4,2,1.6,2.2c0.6,0.1,1.4,0.2,1.8,0.2
		c0.2,0,0.3,0.1,0.3,0.2c0,0.2-0.2,0.3-0.6,0.3c-2.2,0-4.7-0.1-4.9-0.1c-0.1,0-2.6,0.1-3.8,0.1c-0.4,0-0.6-0.1-0.6-0.3
		c0-0.1,0.1-0.2,0.3-0.2c0.4,0,0.8-0.1,1.2-0.2c0.8-0.2,1-1,1.2-2.2c0.2-1.7,0.2-4.8,0.2-8.7V14.6z"/>
	<path fill="#FFFFFF" d="M38.2,7c7.9,0,13.9,4.8,13.9,12.8c0,7.6-5.6,13.9-14.1,13.9c-9.6,0-13.8-7.2-13.8-13.4
		C24.2,14.8,28.5,7,38.2,7z M39,32.2c3.2,0,9.5-1.7,9.5-11.5c0-8.2-5-12.4-10.5-12.4c-5.9,0-10.1,3.7-10.1,11.1
		C27.9,27.3,32.6,32.2,39,32.2z"/>
	<path fill="#FFFFFF" d="M59.5,17.3c0-5.3,0-6.2-0.1-7.3c-0.1-1.2-0.3-1.7-1.4-1.9c-0.3,0-0.9-0.1-1.2-0.1c-0.1,0-0.3-0.2-0.3-0.3
		c0-0.2,0.2-0.3,0.6-0.3c1.6,0,4,0.1,4.2,0.1c0.4,0,3.3-0.1,4.4-0.1c2.2,0,4.7,0.2,6.6,1.5c0.9,0.6,2.4,2.3,2.4,4.6
		c0,2.5-1,5-4.3,7.8c2.9,3.6,5.3,6.7,7.4,8.8c1.9,1.9,3,2.2,3.9,2.4c0.7,0.1,1,0.1,1.2,0.1c0.2,0,0.3,0.2,0.3,0.3
		c0,0.2-0.2,0.3-0.8,0.3h-2.2c-2,0-2.9-0.2-3.8-0.7c-1.5-0.8-2.8-2.4-4.8-5c-1.5-1.8-3-4-3.8-5c-0.2-0.2-0.2-0.2-0.5-0.2l-4.5-0.1
		c-0.2,0-0.2,0.1-0.2,0.3v0.8c0,3.3,0,5.9,0.2,7.3c0.1,1,0.3,1.6,1.4,1.8c0.5,0.1,1.2,0.2,1.6,0.2c0.2,0,0.3,0.2,0.3,0.3
		c0,0.2-0.2,0.3-0.6,0.3c-1.9,0-4.2-0.1-4.3-0.1c0,0-2.4,0.1-3.5,0.1c-0.4,0-0.6-0.1-0.6-0.3c0-0.1,0.1-0.3,0.3-0.3
		c0.3,0,0.8-0.1,1.1-0.2c0.7-0.2,0.8-0.8,0.9-1.8c0.2-1.4,0.2-4.1,0.2-7.4V17.3z M62.5,20.2c0,0.2,0.1,0.3,0.2,0.4
		c0.5,0.3,2.3,0.5,3.9,0.5c0.8,0,1.8,0,2.6-0.6c1.2-0.8,2.1-2.6,2.1-5.2c0-4.2-2.3-6.7-6.1-6.7c-1,0-2.2,0.1-2.5,0.2
		c-0.2,0.1-0.3,0.2-0.3,0.4V20.2z"/>
	<path fill="#FFFFFF" d="M86.4,17.3c0-5.3,0-6.2-0.1-7.3c-0.1-1.2-0.3-1.7-1.4-1.9C84.6,8.1,84,8,83.6,8c-0.1,0-0.3-0.2-0.3-0.3
		c0-0.2,0.2-0.3,0.6-0.3c1.6,0,3.8,0.1,4,0.1c0.7,0,8.3,0,9.1,0c0.7,0,1.3,0,1.6-0.2c0.2,0,0.4-0.2,0.5-0.2c0.2,0,0.2,0.2,0.2,0.3
		c0,0.2-0.2,0.6-0.3,1.6c0,0.3-0.1,1.8-0.2,2.2c0,0.2-0.2,0.4-0.3,0.4c-0.2,0-0.3-0.2-0.3-0.4c0-0.3-0.1-0.8-0.3-1.3
		c-0.2-0.4-1-1-2.4-1L89.8,9c-0.2,0-0.3,0.1-0.3,0.4v9.3c0,0.2,0,0.3,0.2,0.3l4.8,0c0.6,0,1.1,0,1.6,0c0.8-0.1,1.3-0.2,1.6-0.6
		c0.2-0.2,0.3-0.4,0.4-0.4c0.2,0,0.2,0.1,0.2,0.3c0,0.2-0.2,0.8-0.3,1.9c-0.1,0.7-0.1,2-0.1,2.3c0,0.3-0.1,0.7-0.3,0.7
		c-0.2,0-0.2-0.2-0.2-0.3c0-0.4-0.1-0.8-0.2-1.2c-0.2-0.5-0.7-0.9-1.8-1.1c-0.9-0.1-5-0.1-5.6-0.1c-0.2,0-0.2,0.1-0.2,0.3v2.7
		c0,3.4,0,6,0.2,7.4c0.1,1,0.3,1.6,1.3,1.8c0.5,0.1,1.3,0.2,1.6,0.2c0.2,0,0.3,0.2,0.3,0.3c0,0.2-0.2,0.3-0.6,0.3
		c-2,0-4.2-0.1-4.4-0.1c-0.2,0-2.4,0.1-3.5,0.1c-0.4,0-0.6-0.1-0.6-0.3c0-0.1,0.1-0.3,0.3-0.3c0.3,0,0.8-0.1,1.1-0.2
		c0.7-0.1,0.8-0.8,0.9-1.8c0.2-1.4,0.2-4.1,0.2-7.4V17.3z"/>
	<path fill="#FFFFFF" d="M111,23.3c0,3.3,0,6,0.2,7.4c0.1,1,0.2,1.6,1.3,1.8c0.5,0.1,1.3,0.2,1.6,0.2c0.2,0,0.3,0.2,0.3,0.3
		c0,0.2-0.2,0.3-0.6,0.3c-2,0-4.2-0.1-4.4-0.1c-0.2,0-2.4,0.1-3.5,0.1c-0.4,0-0.6-0.1-0.6-0.3c0-0.1,0.1-0.3,0.3-0.3
		c0.3,0,0.8-0.1,1.1-0.2c0.7-0.2,0.8-0.8,0.9-1.8c0.2-1.4,0.2-4.1,0.2-7.4v-6c0-5.3,0-6.2-0.1-7.3c-0.1-1.2-0.4-1.7-1.1-1.8
		c-0.4-0.1-0.8-0.1-1.1-0.1c-0.2,0-0.3-0.2-0.3-0.3c0-0.2,0.2-0.3,0.6-0.3c1.2,0,3.4,0.1,3.6,0.1c0.2,0,2.4-0.1,3.5-0.1
		c0.4,0,0.6,0.1,0.6,0.3c0,0.1-0.2,0.3-0.3,0.3c-0.2,0-0.5,0-0.9,0.1c-1,0.2-1.2,0.7-1.2,1.9c0,1.1,0,2,0,7.3V23.3z"/>
	<path fill="#FFFFFF" d="M122.5,17.3c0-5.3,0-6.2-0.1-7.3c-0.1-1.2-0.3-1.7-1.4-1.9c-0.3,0-0.9-0.1-1.2-0.1c-0.1,0-0.3-0.2-0.3-0.3
		c0-0.2,0.2-0.3,0.6-0.3c1.6,0,4,0.1,4.2,0.1c0.4,0,3.3-0.1,4.4-0.1c2.2,0,4.7,0.2,6.6,1.5c0.9,0.6,2.4,2.3,2.4,4.6
		c0,2.5-1,5-4.3,7.8c2.9,3.6,5.3,6.7,7.4,8.8c1.9,1.9,3,2.2,3.9,2.4c0.7,0.1,1,0.1,1.2,0.1c0.2,0,0.3,0.2,0.3,0.3
		c0,0.2-0.2,0.3-0.8,0.3h-2.2c-2,0-2.9-0.2-3.8-0.7c-1.5-0.8-2.8-2.4-4.8-5c-1.5-1.8-3-4-3.8-5c-0.2-0.2-0.2-0.2-0.5-0.2l-4.5-0.1
		c-0.2,0-0.2,0.1-0.2,0.3v0.8c0,3.3,0,5.9,0.2,7.3c0.1,1,0.3,1.6,1.4,1.8c0.5,0.1,1.2,0.2,1.6,0.2c0.2,0,0.3,0.2,0.3,0.3
		c0,0.2-0.2,0.3-0.6,0.3c-1.9,0-4.2-0.1-4.3-0.1c0,0-2.4,0.1-3.5,0.1c-0.4,0-0.6-0.1-0.6-0.3c0-0.1,0.1-0.3,0.3-0.3
		c0.3,0,0.8-0.1,1.1-0.2c0.7-0.2,0.8-0.8,0.9-1.8c0.2-1.4,0.2-4.1,0.2-7.4V17.3z M125.6,20.2c0,0.2,0.1,0.3,0.2,0.4
		c0.5,0.3,2.3,0.5,3.9,0.5c0.8,0,1.8,0,2.6-0.6c1.2-0.8,2.1-2.6,2.1-5.2c0-4.2-2.3-6.7-6.1-6.7c-1,0-2.2,0.1-2.5,0.2
		c-0.2,0.1-0.3,0.2-0.3,0.4V20.2z"/>
	<path fill="#FFFFFF" d="M152.6,23.3c0,3.3,0,6,0.2,7.4c0.1,1,0.2,1.6,1.3,1.8c0.5,0.1,1.3,0.2,1.6,0.2c0.2,0,0.3,0.2,0.3,0.3
		c0,0.2-0.2,0.3-0.6,0.3c-2,0-4.2-0.1-4.4-0.1c-0.2,0-2.4,0.1-3.5,0.1c-0.4,0-0.6-0.1-0.6-0.3c0-0.1,0.1-0.3,0.3-0.3
		c0.3,0,0.8-0.1,1.1-0.2c0.7-0.2,0.8-0.8,0.9-1.8c0.2-1.4,0.2-4.1,0.2-7.4v-6c0-5.3,0-6.2-0.1-7.3c-0.1-1.2-0.4-1.7-1.1-1.8
		c-0.4-0.1-0.8-0.1-1.1-0.1c-0.2,0-0.3-0.2-0.3-0.3c0-0.2,0.2-0.3,0.6-0.3c1.2,0,3.4,0.1,3.6,0.1c0.2,0,2.4-0.1,3.5-0.1
		c0.4,0,0.6,0.1,0.6,0.3c0,0.1-0.2,0.3-0.3,0.3c-0.2,0-0.5,0-0.9,0.1c-1,0.2-1.2,0.7-1.2,1.9c0,1.1,0,2,0,7.3V23.3z"/>
	<path fill="#FFFFFF" d="M174.4,7c7.9,0,13.9,4.8,13.9,12.8c0,7.6-5.6,13.9-14.1,13.9c-9.6,0-13.8-7.2-13.8-13.4
		C160.4,14.8,164.6,7,174.4,7z M175.2,32.2c3.2,0,9.5-1.7,9.5-11.5c0-8.2-5-12.4-10.5-12.4c-5.9,0-10.1,3.7-10.1,11.1
		C164,27.3,168.8,32.2,175.2,32.2z"/>
	<path fill="#FFFFFF" d="M210.6,14.6c0-6.2,0-7.4-0.1-8.6c-0.1-1.4-0.4-2-1.7-2.3c-0.3-0.1-1-0.1-1.4-0.1c-0.2,0-0.3-0.1-0.3-0.2
		c0-0.2,0.2-0.3,0.6-0.3c1.8,0,4.3,0.1,4.5,0.1c0.5,0,3-0.1,5.4-0.1c4,0,11.3-0.4,16,4.6c2,2.1,3.9,5.4,3.9,10.2
		c0,5-2.1,8.9-4.3,11.3c-1.7,1.8-5.3,4.6-12.1,4.6c-1.7,0-3.8-0.1-5.6-0.2c-1.8-0.1-3.1-0.2-3.3-0.2c-0.1,0-0.8,0-1.6,0
		c-0.8,0-1.7,0.1-2.3,0.1c-0.4,0-0.6-0.1-0.6-0.3c0-0.1,0.1-0.2,0.3-0.2c0.4,0,0.8-0.1,1.2-0.2c0.8-0.2,1-1,1.2-2.2
		c0.2-1.7,0.2-4.8,0.2-8.7V14.6z M214,18.9c0,4.2,0,7.9,0.1,8.7c0,1,0.1,2.6,0.4,3c0.5,0.8,2.1,1.6,6.8,1.6c3.7,0,7.2-1.4,9.5-3.7
		c2.1-2,3.2-5.9,3.2-9.6c0-5.1-2.2-8.4-3.8-10.1c-3.8-4-8.3-4.5-13.1-4.5c-0.8,0-2.3,0.1-2.6,0.3C214.2,4.8,214,5,214,5.4
		c0,1.4,0,5.4,0,8.5V18.9z"/>
	<path fill="#FFFFFF" d="M249.2,23.3c0,3.3,0,6,0.2,7.4c0.1,1,0.2,1.6,1.3,1.8c0.5,0.1,1.3,0.2,1.6,0.2c0.2,0,0.3,0.2,0.3,0.3
		c0,0.2-0.2,0.3-0.6,0.3c-2,0-4.2-0.1-4.4-0.1c-0.2,0-2.4,0.1-3.5,0.1c-0.4,0-0.6-0.1-0.6-0.3c0-0.1,0.1-0.3,0.3-0.3
		c0.3,0,0.8-0.1,1.1-0.2c0.7-0.2,0.8-0.8,0.9-1.8c0.2-1.4,0.2-4.1,0.2-7.4v-6c0-5.3,0-6.2-0.1-7.3c-0.1-1.2-0.4-1.7-1.1-1.8
		c-0.4-0.1-0.8-0.1-1.1-0.1c-0.2,0-0.3-0.2-0.3-0.3c0-0.2,0.2-0.3,0.6-0.3c1.2,0,3.4,0.1,3.6,0.1c0.2,0,2.4-0.1,3.5-0.1
		c0.4,0,0.6,0.1,0.6,0.3c0,0.1-0.2,0.3-0.3,0.3c-0.2,0-0.5,0-0.9,0.1c-1,0.2-1.2,0.7-1.2,1.9c0,1.1,0,2,0,7.3V23.3z M253.6,2.1
		c0.2,0.4,0,0.5-0.2,0.5c-0.1,0-0.5-0.1-1.2,0c-2,0.2-4.8,1.1-6.1,1.7c-0.3,0.1-0.5,0.2-0.6,0.2s-0.2-0.1-0.2-0.2
		c0-0.1,0.1-0.2,0.3-0.3c1.4-1,5.2-3.2,5.4-3.4c0.7-0.4,0.9-0.5,1.1-0.5c0.1,0,0.2,0.1,0.4,0.4C252.9,0.8,253.2,1.3,253.6,2.1z"/>
	<path fill="#FFFFFF" d="M266.9,8.2c0.4-1.1,0.6-1.3,0.8-1.3c0.4,0,0.5,0.5,0.8,1.2c0.6,1.4,6.3,15.5,8.4,20.6c1.3,3,2.2,3.5,3,3.7
		c0.5,0.2,1,0.2,1.4,0.2c0.2,0,0.4,0.1,0.4,0.3c0,0.2-0.4,0.3-0.8,0.3c-0.5,0-3.1,0-5.6-0.1c-0.7,0-1.2,0-1.2-0.2
		c0-0.2,0.1-0.2,0.2-0.2c0.2-0.1,0.6-0.4,0.3-0.9l-3.2-7.8c-0.1-0.2-0.1-0.2-0.3-0.2h-8.1c-0.2,0-0.3,0.1-0.4,0.3l-2,5.4
		c-0.3,0.8-0.5,1.7-0.5,2.3c0,0.7,0.6,0.9,1.2,0.9h0.3c0.3,0,0.4,0.1,0.4,0.3c0,0.2-0.2,0.3-0.5,0.3c-0.8,0-2.8-0.1-3.2-0.1
		c-0.4,0-2.1,0.1-3.6,0.1c-0.4,0-0.7-0.1-0.7-0.3c0-0.2,0.2-0.3,0.3-0.3c0.2,0,0.8,0,1-0.1c1.6-0.2,2.3-1.4,3-3.1L266.9,8.2z
		 M270.8,22.3c0.2,0,0.2-0.1,0.1-0.2l-3.5-9.3c-0.2-0.5-0.4-0.5-0.6,0l-3.3,9.3c0,0.2,0,0.2,0.1,0.2H270.8z"/>
	<path fill="#FFFFFF" d="M296.5,31.6c3.7,0,4.7-0.6,5.5-1.6c0.4-0.4,0.6-1.4,0.7-1.8c0.1-0.3,0.2-0.5,0.4-0.5c0.2,0,0.3,0.1,0.3,0.8
		c0,1.1-0.5,3.1-0.7,3.9c-0.2,0.8-0.2,0.9-1,0.9c-5.9,0-11.8-0.2-18-0.2c-0.4,0-0.6,0-0.6-0.3c0-0.2,0-0.4,0.5-1
		c5.3-7.6,10.5-15.2,15.3-22.8h-7.4c-1.8,0-3.9,0-5,0.6c-1.2,0.6-1.9,1.9-2,2.7c-0.1,0.5-0.3,0.6-0.5,0.6c-0.2,0-0.2-0.2-0.2-0.4
		c0-0.4,0.5-3.5,0.7-4.5c0-0.5,0.1-0.6,0.3-0.6c0.3,0,0.6,0.2,1.5,0.2c3.4,0.1,5,0.1,6.2,0.1h9.8c0.5,0,0.7,0.1,0.7,0.3
		c0,0.2,0,0.4-0.2,0.6c-5.1,7.8-10.2,15.4-15.6,23.2H296.5z"/>
</g>
</svg>
